Coordinates
version=1
nRows=10
nColumns=46
inDegrees=yes

Units are S.I. units (second, meters, Newtons, ...)
Angles are in degrees.

endheader
time	pelvis_tilt	pelvis_list	pelvis_rotation	pelvis_tx	pelvis_ty	pelvis_tz	bb_angle	bb_tx	bb_ty	bb_tz	hip_flexion_r	hip_adduction_r	hip_rotation_r	knee_angle_r	knee_angle_r_beta	ankle_angle_r	subtalar_angle_r	mtp_angle_r	crank_angle_r	hip_flexion_l	hip_adduction_l	hip_rotation_l	knee_angle_l	knee_angle_l_beta	ankle_angle_l	subtalar_angle_l	mtp_angle_l	crank_angle_l	lumbar_extension	lumbar_bending	lumbar_rotation	arm_flex_r	arm_add_r	arm_rot_r	elbow_flex_r	pro_sup_r	wrist_flex_r	wrist_dev_r	arm_flex_l	arm_add_l	arm_rot_l	elbow_flex_l	pro_sup_l	wrist_flex_l	wrist_dev_l
      7.50500000	    -16.74580832	      3.13797197	      6.59007597	      0.12601675	      1.10821085	     -0.24455690	      0.00000000	      0.50000000	      0.00000000	      0.25000000	     58.78571781	    -10.27285353	     -0.10528840	     75.58990550	      1.31929273	    -32.12116720	    -20.83568850	      0.00000000	      0.00000000	     78.50063609	      4.71714739	      3.30905962	     75.81090919	      1.32314997	      6.54750248	    -11.40232468	      0.00000000	      0.00000000	    -59.14886715	      0.45888571	     -6.05711801	     89.70273779	     -7.67096560	     33.57874637	     34.02410917	     26.91786314	      0.00000000	      0.00000000	     89.51243980	     -7.77912531	     34.51268231	     43.17163757	     31.20692383	      0.00000000	      0.00000000
      7.51000000	    -16.53260416	      2.69505570	      6.46979716	      0.12626015	      1.10794185	     -0.24464288	      0.00000000	      0.50000000	      0.00000000	      0.25000000	     59.75966751	     -9.80416797	      0.01272173	     77.98241104	      1.36104983	    -31.80736807	    -20.86488517	      0.00000000	      0.00000000	     76.76467134	      4.53244944	      3.81300389	     73.23452865	      1.27818365	      5.92861933	    -11.74918434	      0.00000000	      0.00000000	    -59.25320517	      0.67693897	     -5.61371292	     89.70618763	     -7.64841812	     33.56656982	     34.01075649	     26.84161638	      0.00000000	      0.00000000	     89.51282151	     -7.80520615	     34.64523134	     43.05930173	     31.15038519	      0.00000000	      0.00000000
      7.51500000	    -16.25120665	      2.29682108	      6.36828077	      0.12659567	      1.10777933	     -0.24498299	      0.00000000	      0.50000000	      0.00000000	      0.25000000	     60.70036795	     -9.44032695	      0.12014311	     80.35616212	      1.40247960	    -31.49581349	    -20.66683904	      0.00000000	      0.00000000	     74.94184827	      4.39037011	      4.31672927	     70.69803717	      1.23391352	      5.10863960	    -12.27659189	      0.00000000	      0.00000000	    -59.43722827	      0.97328109	     -5.18102941	     89.70559991	     -7.66366425	     33.54154985	     34.06747127	     26.73660963	      0.00000000	      0.00000000	     89.51651000	     -7.82215729	     34.83566677	     42.92555652	     31.06765516	      0.00000000	      0.00000000
      7.52000000	    -16.02408498	      1.76286506	      6.19448430	      0.12694527	      1.10731485	     -0.24516693	      0.00000000	      0.50000000	      0.00000000	      0.25000000	     61.74133419	     -8.92415744	      0.11298255	     82.68767606	      1.44317220	    -31.23576967	    -20.63837632	      0.00000000	      0.00000000	     73.23406845	      4.03693136	      4.89900587	     68.29713993	      1.19200996	      4.42650476	    -12.24658691	      0.00000000	      0.00000000	    -59.55013991	      1.26622689	     -4.63376629	     89.70552136	     -7.66927988	     33.53002979	     34.12360580	     26.70723169	      0.00000000	      0.00000000	     89.50440747	     -7.87759443	     34.89833243	     42.91688582	     31.04848866	      0.00000000	      0.00000000
      7.52500000	    -15.84659826	      1.08961652	      5.99969203	      0.12715749	      1.10658974	     -0.24532212	      0.00000000	      0.50000000	      0.00000000	      0.25000000	     62.86582772	     -8.21077043	      0.11283698	     84.96843535	      1.48297896	    -31.14190124	    -20.60581905	      0.00000000	      0.00000000	     71.66014393	      3.56558737	      5.59818503	     66.05917836	      1.15295016	      3.89354097	    -11.99152844	      0.00000000	      0.00000000	    -59.61083027	      1.65431550	     -3.96939814	     89.70710140	     -7.58326318	     33.55340196	     34.17483522	     26.71035490	      0.00000000	      0.00000000	     89.48589526	     -8.02089620	     34.88348263	     42.90156199	     31.04256034	      0.00000000	      0.00000000
      7.53000000	    -15.64144971	      0.45688091	      5.77611590	      0.12755269	      1.10581851	     -0.24546646	      0.00000000	      0.50000000	      0.00000000	      0.25000000	     64.01937434	     -7.60386081	      0.00537784	     87.25015857	      1.52280254	    -31.04613871	    -20.59089171	      0.00000000	      0.00000000	     70.02855880	      3.02379951	      6.19038228	     63.89925159	      1.11525233	      3.44903761	    -11.84366393	      0.00000000	      0.00000000	    -59.66437515	      1.97317959	     -3.32098146	     89.70647007	     -7.50968333	     33.57035856	     34.24080958	     26.71825847	      0.00000000	      0.00000000	     89.47693362	     -8.14562183	     34.86983396	     42.89941685	     31.04111187	      0.00000000	      0.00000000
      7.53500000	    -15.21253636	      0.26921635	      5.72571788	      0.12802386	      1.10618334	     -0.24606145	      0.00000000	      0.50000000	      0.00000000	      0.25000000	     64.86527151	     -7.49528982	      0.15279787	     89.41054060	      1.56050832	    -30.38225679	    -20.28223639	      0.00000000	      0.00000000	     67.88061688	      2.86290699	      6.37905987	     61.30238675	      1.06992849	      2.19395504	    -12.38332974	      0.00000000	      0.00000000	    -60.11895826	      2.06991763	     -3.05260593	     89.71079932	     -7.82344818	     33.55099758	     34.35535716	     26.65308214	      0.00000000	      0.00000000	     89.48840120	     -7.98346865	     35.21149427	     42.79899779	     31.00588179	      0.00000000	      0.00000000
      7.54000000	    -14.98904407	     -0.22447635	      5.56882109	      0.12842676	      1.10582812	     -0.24651935	      0.00000000	      0.50000000	      0.00000000	      0.25000000	     65.98459788	     -7.06220876	      0.18410548	     91.58177504	      1.59840351	    -29.77655380	    -19.81413580	      0.00000000	      0.00000000	     66.08065339	      2.43377859	      6.82580242	     58.95815693	      1.02901396	      1.43080126	    -12.74887462	      0.00000000	      0.00000000	    -60.30079961	      2.34240299	     -2.60069568	     89.70547946	     -7.84541039	     33.36208702	     34.68912835	     26.71232068	      0.00000000	      0.00000000	     89.48385570	     -8.09054363	     35.26166804	     42.73202571	     31.02868113	      0.00000000	      0.00000000
      7.54500000	    -14.86993119	     -0.78336036	      5.35339972	      0.12881667	      1.10528584	     -0.24681723	      0.00000000	      0.50000000	      0.00000000	      0.25000000	     67.24255729	     -6.53932827	      0.10752932	     93.64252421	      1.63437037	    -29.42857695	    -19.58395351	      0.00000000	      0.00000000	     64.43320336	      1.82903364	      7.16676476	     56.70546839	      0.98969713	      0.53688932	    -12.63562671	      0.00000000	      0.00000000	    -60.35321499	      2.57983265	     -2.05934351	     89.70569945	     -7.89150872	     33.48192605	     34.75725049	     26.81888012	      0.00000000	      0.00000000	     89.48027429	     -8.24135068	     35.57487944	     42.64385061	     31.11712767	      0.00000000	      0.00000000
      7.55000000	    -14.76815998	     -1.31577895	      5.12478576	      0.12914255	      1.10475508	     -0.24721308	      0.00000000	      0.50000000	      0.00000000	      0.25000000	     68.54749543	     -6.05881978	      0.04754275	     95.65805734	      1.66954806	    -28.91475465	    -19.38947295	      0.00000000	      0.00000000	     62.77735262	      1.23586556	      7.50635657	     54.43761298	      0.95011558	     -0.36260200	    -12.58264288	      0.00000000	      0.00000000	    -60.40292176	      2.79393913	     -1.59583016	     89.70579059	     -7.89283439	     33.71140387	     34.81821069	     26.94105549	      0.00000000	      0.00000000	     89.46168625	     -8.45008164	     35.93470163	     42.63705241	     31.28115930	      0.00000000	      0.00000000
